<?xml version="1.0" ?><svg xmlns="http://www.w3.org/2000/svg" width="24" height="24" viewBox="0 0 24 24" fill="none"><g id="quotes-end"><g id="outline" filter="url(#filter0_d_1701_107)"><path d="M12.35 18.0613L15.4102 21.1215C15.8007 21.512 16.4339 21.512 16.8244 21.1215L19.8327 18.1132C21.1346 16.8113 22 15.0727 22 12.9961V3.99609C22 3.44381 21.5523 2.99609 21 2.99609H3C2.44772 2.99609 2 3.44381 2 3.99609V13.1027C2 13.5961 2.39999 13.9961 2.89341 13.9961C3.68936 13.9961 4.08797 14.9584 3.52515 15.5212L2.87467 16.1717C2.48415 16.5622 2.48415 17.1954 2.87467 17.5859L6.4102 21.1215C6.80072 21.512 7.43388 21.512 7.82441 21.1215L10.8327 18.1132C11.2483 17.6976 11.9343 17.6456 12.35 18.0613Z" fill="white"/></g><g id="icon"><path d="M18.4184 16.699L16.1173 19.0002L13.996 16.8788L16.2629 14.6119C16.6579 14.2169 17 13.5652 17 12.9961V11.9961L13 11.9961L13 4.99609L20 4.9961V12.9961C20 14.4766 19.3944 15.7231 18.4184 16.699Z" fill="#663D58"/><path d="M9.41845 16.699L7.11731 19.0002L4.99599 16.8788L7.26295 14.6119C7.65789 14.2169 8 13.5652 8 12.9961V11.9961L4 11.9961L4 4.99609L11 4.99609L11 12.9961C11 14.4766 10.3944 15.7231 9.41845 16.699Z" fill="#663D58"/></g></g><defs><filter id="filter0_d_1701_107" x="0" y="1.49609" width="24" height="22.4185" filterUnits="userSpaceOnUse" color-interpolation-filters="sRGB"><feFlood flood-opacity="0" result="BackgroundImageFix"/><feColorMatrix in="SourceAlpha" type="matrix" values="0 0 0 0 0 0 0 0 0 0 0 0 0 0 0 0 0 0 127 0" result="hardAlpha"/><feOffset dy="0.5"/><feGaussianBlur stdDeviation="1"/><feComposite in2="hardAlpha" operator="out"/><feColorMatrix type="matrix" values="0 0 0 0 0 0 0 0 0 0 0 0 0 0 0 0 0 0 0.25 0"/><feBlend mode="normal" in2="BackgroundImageFix" result="effect1_dropShadow_1701_107"/><feBlend mode="normal" in="SourceGraphic" in2="effect1_dropShadow_1701_107" result="shape"/></filter></defs></svg>